<?xml version="1.0" encoding="UTF-8" standalone="no"?>
<!-- Created with Inkscape (http://www.inkscape.org/) -->

<svg
   width="451.90833mm"
   height="315.38333mm"
   viewBox="0 0 451.90833 315.38333"
   version="1.1"
   id="svg1"
   xml:space="preserve"
   inkscape:version="1.4 (86a8ad7, 2024-10-11)"
   sodipodi:docname="image-placeholder.svg"
   xmlns:inkscape="http://www.inkscape.org/namespaces/inkscape"
   xmlns:sodipodi="http://sodipodi.sourceforge.net/DTD/sodipodi-0.dtd"
   xmlns="http://www.w3.org/2000/svg"
   xmlns:svg="http://www.w3.org/2000/svg"><sodipodi:namedview
     id="namedview1"
     pagecolor="#ffffff"
     bordercolor="#000000"
     borderopacity="0.25"
     inkscape:showpageshadow="2"
     inkscape:pageopacity="0.0"
     inkscape:pagecheckerboard="0"
     inkscape:deskcolor="#d1d1d1"
     inkscape:document-units="mm"
     inkscape:zoom="0.18151129"
     inkscape:cx="628.06009"
     inkscape:cy="1269.8934"
     inkscape:window-width="1920"
     inkscape:window-height="1017"
     inkscape:window-x="-8"
     inkscape:window-y="-8"
     inkscape:window-maximized="1"
     inkscape:current-layer="layer1" /><defs
     id="defs1" /><g
     inkscape:label="Слой 1"
     inkscape:groupmode="layer"
     id="layer1"
     transform="translate(27.28558,7.4132533)"><path
       style="fill:#7d7d7d;stroke:#7d7d7d;stroke-width:0.500062;stroke-linecap:round;stroke-linejoin:round;fill-opacity:0"
       d="M 7.730968,281.15016 V 18.870296 H 390.15902 V 281.70579 Z"
       id="path1" /><path
       style="fill:#7d7d7d;fill-opacity:0;stroke:#7d7d7d;stroke-width:0.500062;stroke-linecap:round;stroke-linejoin:round"
       d="M 20.385563,268.17748 V 32.398592 H 376.8884 l -0.0455,236.309878 -11.64904,0.0911 -81.69297,-81.37408 -42.86172,42.6795 -91.04174,-90.08516 z"
       id="path2"
       sodipodi:nodetypes="ccccccccc" /><circle
       style="fill:#7d7d7d;fill-opacity:1;stroke:#7d7d7d;stroke-width:0.500062;stroke-linecap:round;stroke-linejoin:round"
       id="path3"
       cx="265.60046"
       cy="108.36045"
       r="32.467915" /><path
       style="fill:#7d7d7d;fill-opacity:1;stroke:#7d7d7d;stroke-width:1.89;stroke-linecap:round;stroke-linejoin:round"
       d="m 824.90658,1089.787 c -379.24276,-0.5796 -689.75143,-1.2494 -690.01926,-1.4885 -0.26782,-0.2391 -0.48696,-222.63355 -0.48696,-494.20993 V 100.31332 h 720.69761 720.69763 v 495.72308 495.7231 l -30.6784,-0.4594 c -16.8731,-0.2527 -340.9679,-0.9336 -720.21062,-1.5131 z M 1529.0476,597.01031 V 149.0091 H 854.12405 179.20049 v 447.0273 c 0,245.86501 0.65739,446.9838 1.46087,446.9306 0.80348,-0.053 111.02639,-109.14152 244.93979,-242.41855 l 243.47892,-242.32187 170.43938,170.3488 c 93.74164,93.69183 171.31015,170.34879 172.37445,170.34879 1.0643,0 38.3177,-36.37485 82.7853,-80.83301 l 80.8503,-80.83301 153.8674,153.87669 153.8674,153.87666 h 22.8917 22.8916 z"
       id="path4"
       transform="matrix(0.26458333,0,0,0.26458333,-27.28558,-7.4132533)" /><path
       style="fill:#7d7d7d;fill-opacity:1;stroke:#7d7d7d;stroke-width:1.89;stroke-linecap:round;stroke-linejoin:round"
       d=""
       id="path5"
       transform="matrix(0.26458333,0,0,0.26458333,-27.28558,-7.4132533)" /></g></svg>
